<?xml version="1.0" encoding="UTF-8" standalone="no"?>
<!DOCTYPE svg PUBLIC "-//W3C//DTD SVG 1.1//EN" "http://www.w3.org/Graphics/SVG/1.1/DTD/svg11.dtd">
<svg width="1024" height="1024" viewBox="0 0 1500 1500" version="1.1" xmlns="http://www.w3.org/2000/svg" xmlns:xlink="http://www.w3.org/1999/xlink" xml:space="preserve" style="fill-rule:evenodd;clip-rule:evenodd;stroke-linejoin:round;stroke-miterlimit:1.41421;">
    <g transform="matrix(0.75,0,0,0.75,0,0)">
        <g id="YouTube-Live" transform="matrix(2.22469,0,0,2.22469,-1.11235,2.84217e-14)">
            <g transform="matrix(0.998889,0,0,0.95798,0.5,-1.30451e-14)">
                <rect x="0" y="0" width="900" height="938.433" style="fill:rgb(251,0,0);"/>
            </g>
            <g transform="matrix(1,0,0,1,-0.5,-3.06613e-13)">
                <path d="M456.383,899L228.319,670.935L228.319,670.935C228.319,670.935 228.319,670.935 228.319,670.935L268.63,630.668C222.278,584.264 193.597,520.205 193.597,449.5C193.597,378.795 222.278,314.736 268.63,268.332L301.498,301.163L301.525,301.137L308.607,308.219L308.585,308.242C308.585,308.242 307.934,308.892 307.934,308.892L307.936,308.894C272.176,345.022 250.08,394.701 250.08,449.5C250.08,504.629 272.443,554.577 308.585,590.758L349.076,550.312C323.282,524.491 307.322,488.844 307.322,449.5C307.322,410.156 323.282,374.509 349.076,348.688L390.937,390.549L390.639,390.848C375.739,405.927 366.534,426.647 366.534,449.5C366.534,495.566 403.934,532.966 450,532.966C496.066,532.966 533.466,495.566 533.466,449.5C533.466,426.404 524.065,405.487 508.884,390.37L508.884,390.369L590.855,472.34C585.987,502.547 571.622,529.593 550.924,550.312L591.415,590.758C627.557,554.577 649.92,504.629 649.92,449.5C649.92,394.436 627.609,344.541 591.543,308.37L591.543,308.37L704.915,421.742C705.899,430.861 706.403,440.122 706.403,449.5C706.403,520.205 677.722,584.264 631.37,630.668L671.681,670.935C728.337,614.218 763.392,535.92 763.392,449.5C763.392,363.946 729.036,286.352 673.378,229.776L673.385,229.769L900,456.383L900,899L456.383,899Z" style="fill-opacity:0.100549;"/>
            </g>
            <g transform="matrix(1,0,0,1,-0.5,-3.06613e-13)">
                <path d="M228.319,670.935C171.663,614.218 136.608,535.92 136.608,449.5C136.608,363.08 171.663,284.782 228.319,228.065L268.63,268.332C222.278,314.736 193.597,378.795 193.597,449.5C193.597,520.205 222.278,584.264 268.63,630.668L228.319,670.935ZM631.37,630.668C677.722,584.264 706.403,520.205 706.403,449.5C706.403,378.795 677.722,314.736 631.37,268.332L671.681,228.065C728.337,284.782 763.392,363.08 763.392,449.5C763.392,535.92 728.337,614.218 671.681,670.935L631.37,630.668ZM308.585,590.758C272.443,554.577 250.08,504.629 250.08,449.5C250.08,394.371 272.443,344.423 308.585,308.242L349.076,348.688C323.282,374.509 307.322,410.156 307.322,449.5C307.322,488.844 323.282,524.491 349.076,550.312L308.585,590.758ZM550.924,550.312C576.718,524.491 592.678,488.844 592.678,449.5C592.678,410.156 576.718,374.509 550.924,348.688L591.415,308.242C627.557,344.423 649.92,394.371 649.92,449.5C649.92,504.629 627.557,554.577 591.415,590.758L550.924,550.312ZM450,366.034C496.066,366.034 533.466,403.434 533.466,449.5C533.466,495.566 496.066,532.966 450,532.966C403.934,532.966 366.534,495.566 366.534,449.5C366.534,403.434 403.934,366.034 450,366.034Z" style="fill:white;"/>
            </g>
        </g>
    </g>
</svg>
