<?xml version="1.0" encoding="utf-8"?>
<!-- Generator: Adobe Illustrator 22.1.0, SVG Export Plug-In . SVG Version: 6.00 Build 0)  -->
<svg version="1.1" xmlns="http://www.w3.org/2000/svg" xmlns:xlink="http://www.w3.org/1999/xlink" x="0px" y="0px"
	 viewBox="0 0 638 210.6" style="enable-background:new 0 0 638 210.6;" xml:space="preserve">
<style type="text/css">
	.st0{fill:#FFFFFF;}
</style>
<g id="Layer_1">
	<path class="st0" d="M205.8,47.2c-11.8,2.2-20.3,12.3-20.3,24.4c0,29.7,0,59.3,0,89c0,15.4-8.9,24.5-23.9,24.6
		c-37.3,0.1-74.7,0.1-112,0c-14.7,0-23.6-9-23.6-23.7c-0.1-37.2-0.1-74.3,0-111.5c0-15.3,8.8-24.3,24.1-24.4c37-0.1,74,0,111,0
		c7.5,0,13.9,2.3,19.3,7.7c5.6,5.6,13.1,5.8,18.3,0.7s4.8-12.9-0.7-18.7c-8.5-9-19-14.4-31.3-14.6C146.4,0.2,126,0.5,106,0.5
		c0-0.1,0-0.2,0-0.3c-18,0-37,0-55.5,0C20.7,0.2,0.3,20.7,0.4,50.5c0,36.7,0,73.3,0,110c0,4.2,0.2,8.3,1.1,12.4
		c5,22.8,23.6,37.5,47.7,37.6c37.3,0.1,74.7,0.1,112,0c28.7,0,49.2-19.7,49.5-48.3c0.4-37,0-74,0.2-111
		C210.9,47,209.1,46.6,205.8,47.2z"/>
	<g>
		<path class="st0" d="M141.8,44.5l0.1,3c0.1,1.7-0.4,3.1-1.3,4.1c-1.3,1.3-3.4,2-5.2,2.3c0.1-1.5,0.1-3.1,0.2-4.7
			c-2.6,0-16.2,0-29.9,0l0,0c-13.6,0-27.3,0-29.9,0c0.1,1.6,0.1,3.2,0.2,4.7c-1.8-0.3-3.9-1-5.2-2.3c-1-1-1.4-2.3-1.3-4.1l0.1-3
			H53.8l0.1,2.9C54.6,98,76,110.2,85.8,113.2l-1.6,2.3l4.7,3.3l1.6-2.3c3.2,6,6,9.8,7.2,12.9h-2.2v4.6h2.7
			c-1.1,7.1-15.4,15.3-15.4,15.3v4.3h-3.5v24.5h26.2l0,0h26.2v-24.5h-3.5v-4.3c0,0-14.3-8.2-15.4-15.3h2.7v-4.6h-2.2
			c1.2-3.1,4-6.9,7.2-12.9l1.6,2.3l4.7-3.3l-1.6-2.3c9.8-3,31.2-15.2,32.1-65.8l0.1-2.9L141.8,44.5z M59.6,50.3h4.2
			c0.4,2.1,1.3,3.9,2.8,5.4c2.9,2.9,7,3.8,9.7,4.1c1.5,22.3,5.6,37.1,9.9,47.5C77.8,104.2,61.1,92.7,59.6,50.3z M125.1,107.2
			c4.3-10.4,8.4-25.2,9.9-47.5c2.6-0.3,6.8-1.2,9.7-4.1c1.5-1.5,2.4-3.3,2.8-5.4h4.2C150.2,92.7,133.5,104.2,125.1,107.2z"/>
	</g>
</g>
<g id="Layer_2">
	<g>
		<path class="st0" d="M236.8,101.2c0.7-7.5,1.3-13.7,1.6-18.8c0.3-5,0.7-11.7,1-20.1c0.3-8.4,0.5-13.9,0.5-16.6l0-3.8
			C246.7,42,255,42,264.7,42c8.9,0,16.8,0,23.7-0.1l-0.1,1.4c0,0.3-0.1,1.6-0.2,3.8l-0.3,4.7c-0.1,1-0.1,2-0.1,3.1
			c-5.6-0.2-10.3-0.3-14.1-0.3c-4.2,0-7,0-8.5,0c-1.5,0-3.7,0.1-6.8,0.2l-0.5,10c3.4,0.1,7.4,0.1,12,0.1c1.6,0,5.9-0.1,13-0.3
			c-0.3,3.7-0.6,8.1-0.8,13.3c-5-0.1-8.9-0.1-11.6-0.1c-4,0-8.5,0.1-13.4,0.3l-0.5,10.6h5c1.5,0,4.5,0,9.2-0.1l9-0.2
			c1.3,0,3.6-0.1,6.7-0.3c-0.3,4.3-0.6,8.7-0.9,13.3c-7.1-0.1-14.8-0.1-23.3-0.1l-19.1,0L236.8,101.2z"/>
		<path class="st0" d="M295,100.3c-0.4-6.2-0.8-11.1-1.3-14.8c3.2,1.5,6.1,2.5,8.7,3c2.5,0.6,4.8,0.8,6.7,0.8c2.5,0,4.5-0.4,6-1.1
			c1.5-0.7,2.2-1.8,2.2-3.3c0-0.5-0.1-1-0.2-1.4c-0.1-0.4-0.4-1-0.8-1.5c-0.4-0.6-1-1.2-1.7-1.8l-8.2-7.1c-1.9-1.6-3.3-2.8-4-3.5
			c-1.5-1.5-2.7-2.9-3.6-4.1c-0.9-1.3-1.5-2.6-1.9-3.9c-0.4-1.3-0.6-2.7-0.6-4.2c0-1.8,0.3-3.5,0.9-5.2c0.6-1.7,1.6-3.3,2.8-4.8
			c1.2-1.5,2.9-2.8,5-3.8c2.1-1.1,4.3-1.8,6.6-2.2c2.3-0.4,4.8-0.6,7.3-0.6c4.9,0,10.2,0.6,16,1.7c0.1,2,0.2,3.8,0.3,5.5
			c0.1,1.7,0.4,4.6,0.8,8.8c-2.7-1.1-5.1-1.8-7.3-2.2c-2.2-0.4-4.1-0.6-5.7-0.6c-2.3,0-4.1,0.4-5.6,1.3c-1.5,0.8-2.2,1.9-2.2,3.1
			c0,0.6,0.1,1.1,0.3,1.7c0.2,0.6,0.7,1.2,1.3,1.9c0.6,0.7,1.5,1.6,2.5,2.4c1,0.9,2.7,2.2,4.9,3.9l3.1,2.5c0.9,0.8,1.9,1.7,3,2.7
			c1.1,1.1,2,2.1,2.8,3.2s1.4,2,1.8,2.9c0.4,0.9,0.7,1.7,0.9,2.6c0.2,0.9,0.3,1.8,0.3,2.8c0,2.6-0.6,5.1-1.9,7.5
			c-1.2,2.4-3,4.3-5.3,5.8c-2.3,1.5-4.8,2.6-7.5,3.2c-2.7,0.6-5.6,0.9-8.7,0.9C308.1,102.4,302.2,101.7,295,100.3z"/>
		<path class="st0" d="M344.9,101.2l0.9-11.1l1.1-21.7l0.5-15.4c0-1.7,0-3.3,0-5c0-1.2,0-3.3,0-6.1c3.8,0.1,6.9,0.1,9.2,0.1
			c2.2,0,5.3-0.1,9.2-0.2c3.9-0.1,7.2-0.2,9.9-0.2c3.9,0,6.8,0.2,8.6,0.7c1.9,0.5,3.6,1.3,5.1,2.3c1.5,1.1,2.8,2.3,3.7,3.7
			c1,1.4,1.7,3,2.2,4.8c0.5,1.8,0.7,3.7,0.7,5.5c0,3.9-0.9,7.4-2.8,10.6c-1.9,3.2-4.5,5.6-8,7.2c-3.4,1.6-7.3,2.4-11.5,2.4
			c-1.6,0-3.4-0.2-5.4-0.5c-0.2-1.3-0.7-3.3-1.3-6c-0.6-2.6-1.2-4.6-1.6-5.9c1.3,0.3,2.6,0.4,4,0.4c2.9,0,5.1-0.7,6.5-2.1
			c1.4-1.4,2.2-3.1,2.2-5.2c0-1-0.2-1.9-0.5-2.6c-0.3-0.8-0.8-1.4-1.5-1.9c-0.7-0.5-1.5-0.8-2.3-1c-0.8-0.1-1.8-0.2-2.9-0.2
			c-1,0-2.1,0-3.3,0.1l-3.7,0.3c-0.4,5.6-0.7,11.8-0.9,18.6c-0.4,12.5-0.6,19.9-0.6,22.4v5.7l-8.7-0.1
			C352.7,101.2,349.7,101.2,344.9,101.2z"/>
		<path class="st0" d="M437.5,40.8c4.6,0,9.1,0.6,13.4,1.9c4.3,1.2,8,3.2,11.3,6s5.6,5.9,7.2,9.5c1.6,3.6,2.4,7.7,2.4,12.3
			c0,4.9-0.9,9.3-2.6,13.4c-1.8,4.1-4.3,7.5-7.6,10.4c-3.3,2.8-7.2,4.9-11.8,6.2c-4.6,1.3-9.3,2-14.3,2c-4.9,0-9.6-0.6-14.1-1.9
			c-4.5-1.3-8.4-3.4-11.7-6.3c-3.3-2.9-5.7-6.1-7.1-9.6c-1.4-3.5-2.1-7.5-2.1-11.8c0-6.3,1.5-11.9,4.4-16.7
			c2.9-4.8,7.3-8.5,13.1-11.2C423.7,42.1,430.2,40.8,437.5,40.8z M436.7,53.9c-3.3,0-6.3,0.8-9,2.5c-2.7,1.6-4.8,3.9-6.2,6.8
			c-1.5,2.9-2.2,6-2.2,9.4c0,3.1,0.7,5.9,2,8.4c1.3,2.6,3.3,4.5,6,6s5.5,2.2,8.6,2.2c3.2,0,6.2-0.8,8.8-2.4c2.7-1.6,4.7-3.9,6.1-6.8
			c1.4-2.9,2.1-6,2.1-9.1c0-3.1-0.7-6-2-8.6c-1.3-2.6-3.2-4.7-5.7-6.1C442.7,54.6,439.8,53.9,436.7,53.9z"/>
		<path class="st0" d="M478.6,101.2c0.5-5.1,1-9.7,1.3-13.8c0.3-4.1,0.6-8.8,0.8-14.2s0.4-11.1,0.5-17.1c0.1-6,0.2-10.7,0.2-14.3
			c3.6,0.1,6.5,0.1,8.8,0.1c2.3,0,5.1-0.1,8.5-0.2s6.6-0.2,9.7-0.2c3.7,0,7,0.1,9.9,0.4c2.2,0.2,4.2,0.6,5.9,1.3
			c1.8,0.6,3.3,1.4,4.5,2.3s2.2,1.9,3,3.1c0.8,1.1,1.4,2.5,1.9,4c0.4,1.5,0.7,3.2,0.7,4.9c0,1.9-0.2,3.8-0.7,5.5
			c-0.5,1.7-1.3,3.3-2.3,4.8c-1.1,1.5-2.4,2.8-4,3.9c-1.6,1.1-3.9,2.2-6.8,3.3l2.3,5.5c0.6,1.5,1.3,3.1,2,4.7l5.8,12.7
			c0.3,0.6,0.7,1.6,1.4,3.3c-4.8-0.1-8-0.1-9.6-0.1c-2.1,0-5.5,0-10.3,0.1c-0.5-1.5-1.3-4.3-2.5-8.4c-0.5-1.7-0.9-3-1.3-4
			c-0.7-2.1-1.7-4.9-3.1-8.6l-4.5-12.3c1.6,0.3,3.1,0.4,4.6,0.4c2.1,0,4-0.3,5.8-1c1.7-0.6,3-1.6,3.9-3c0.9-1.3,1.3-2.7,1.3-4.2
			c0-1.2-0.3-2.3-1-3.3c-0.7-0.9-1.7-1.6-3.2-2.1c-1.4-0.5-3.6-0.7-6.6-0.7c-1,0-2.1,0-3.2,0.1s-2.4,0.1-3.8,0.1
			c-0.4,5.9-0.7,13.2-1,21.7c-0.3,8.5-0.5,16.9-0.6,25.2c-4.8-0.1-8-0.1-9.4-0.1C486,101.2,482.9,101.2,478.6,101.2z"/>
		<path class="st0" d="M554.2,101.2c1.4-14.1,2.3-29.6,2.6-46.5l-18.5,0.5l0.2-4.8c0.1-2.6,0.2-5.4,0.3-8.5
			C547,42,556.6,42,567.6,42l10.7,0h10.4l5.7,0l-0.3,4.3c-0.1,2.3-0.2,4.2-0.2,5.7s-0.1,2.6-0.1,3.4c-6.2-0.3-11.3-0.5-15.3-0.5h-3
			c-0.4,5.1-0.8,9.8-1,14.2c-0.3,6.2-0.6,12.3-0.7,18.1c-0.2,5.9-0.3,10.6-0.3,14.2c-4.7-0.1-7.8-0.1-9.2-0.1
			C563,101.2,559.7,101.2,554.2,101.2z"/>
		<path class="st0" d="M235.9,181.4l0.6-8.3l0.8-16.3l0.4-11.5c0-1.2,0-2.5,0-3.7c0-0.9,0-2.5,0-4.6c2.9,0.1,5.2,0.1,6.9,0.1
			c1.7,0,4,0,6.9-0.1s5.4-0.1,7.4-0.1c2.9,0,5.1,0.2,6.5,0.6c1.4,0.4,2.7,1,3.8,1.7c1.1,0.8,2.1,1.7,2.8,2.8
			c0.7,1.1,1.3,2.3,1.7,3.6c0.4,1.4,0.6,2.7,0.6,4.2c0,2.9-0.7,5.6-2.1,8s-3.4,4.2-6,5.4s-5.4,1.8-8.6,1.8c-1.2,0-2.5-0.1-4.1-0.4
			c-0.2-1-0.5-2.5-1-4.5c-0.5-2-0.9-3.4-1.2-4.4c1,0.2,2,0.3,3,0.3c2.2,0,3.8-0.5,4.9-1.6c1.1-1.1,1.6-2.3,1.6-3.9
			c0-0.7-0.1-1.4-0.4-2c-0.2-0.6-0.6-1-1.1-1.4s-1.1-0.6-1.7-0.7c-0.6-0.1-1.3-0.2-2.2-0.2c-0.8,0-1.6,0-2.4,0.1l-2.7,0.2
			c-0.3,4.2-0.5,8.9-0.6,14c-0.3,9.3-0.4,15-0.4,16.8v4.2l-6.5-0.1C241.8,181.3,239.5,181.3,235.9,181.4z"/>
		<path class="st0" d="M278.1,181.4c0.5-5.1,0.9-9.3,1.2-12.6c0.5-5.9,0.8-11.8,1-17.6c0.2-5.8,0.3-10.6,0.3-14.3
			c3,0,5.6,0.1,7.9,0.1c1.5,0,3.8,0,6.6-0.1l-0.8,11.8l-1,18.5l-0.1,4.5c3.7,0.1,6.2,0.1,7.3,0.1c5.7,0,10-0.1,13-0.2l-0.7,9.8
			c-5.7,0-11.2-0.1-16.3-0.1C289.4,181.3,283.3,181.3,278.1,181.4z"/>
		<path class="st0" d="M311.7,181.4l2.7-4.7l16.9-31.8l1.8-3.6c0.5-1,1.2-2.5,2.2-4.5c3.8,0,6.6,0.1,8.4,0.1c3.1,0,5.9,0,8.5-0.1
			l4.8,13.6l9.7,26.1l1.9,4.8c-3.8,0-6-0.1-6.9-0.1c-1.8,0-4.5,0-8.1,0.1c-1-3.6-2.3-7.8-4.1-12.6H333c-1.9,3.8-3.8,8-5.9,12.6
			c-4,0-6.5-0.1-7.4-0.1C318,181.3,315.3,181.3,311.7,181.4z M336.9,159.2H347c-2.5-7.7-3.9-11.9-4.1-12.7c-1.4,3.2-2.6,5.8-3.6,7.8
			L336.9,159.2z"/>
		<path class="st0" d="M381.8,181.4c1.1-10.6,1.7-22.2,1.9-34.9l-13.9,0.4l0.2-3.6c0.1-1.9,0.2-4.1,0.2-6.4c6.2,0,13.4,0.1,21.6,0.1
			l8,0h7.8l4.2,0l-0.2,3.2c-0.1,1.7-0.1,3.1-0.2,4.2c0,1.1,0,2,0,2.5c-4.7-0.2-8.5-0.4-11.5-0.4h-2.3c-0.3,3.8-0.6,7.4-0.8,10.6
			c-0.2,4.7-0.4,9.2-0.6,13.6c-0.1,4.4-0.2,7.9-0.2,10.7c-3.6,0-5.9-0.1-6.9-0.1C388.3,181.3,385.8,181.3,381.8,181.4z"/>
		<path class="st0" d="M414.4,181.4c0.5-4.4,0.8-8,0.9-10.6c0.3-4,0.5-9.4,0.7-16.3c0.2-6.9,0.4-11.6,0.4-14v-3.6
			c6.5,0,12.6,0.1,18.3,0.1c5.7,0,11.1,0,16.4-0.1c-0.3,5-0.5,8.3-0.5,9.8l-2.8-0.1l-2.3,0l-2.3,0h-6.4c-0.7,0-2.9,0-6.5,0.1
			l-0.3,7.6l4.7,0.1h5.3c1.5,0,3.8,0,7-0.1c-0.2,4.1-0.4,7.3-0.4,9.6c-3.5-0.1-6.1-0.2-7.8-0.2c-2.9,0-6,0.1-9.4,0.2l-0.3,11.7
			l0,4.4v1.4l-7-0.1C421.4,181.3,418.9,181.3,414.4,181.4z"/>
		<path class="st0" d="M482.1,136c3.5,0,6.8,0.5,10,1.4c3.2,0.9,6,2.4,8.4,4.5c2.4,2.1,4.2,4.4,5.4,7.1c1.2,2.7,1.8,5.7,1.8,9.2
			c0,3.7-0.7,7-2,10.1c-1.3,3.1-3.2,5.6-5.7,7.8c-2.5,2.1-5.4,3.7-8.9,4.7c-3.4,1-7,1.5-10.7,1.5c-3.7,0-7.2-0.5-10.6-1.5
			c-3.4-1-6.3-2.5-8.8-4.7s-4.3-4.6-5.3-7.2s-1.6-5.6-1.6-8.8c0-4.8,1.1-8.9,3.3-12.5c2.2-3.6,5.5-6.4,9.8-8.4
			C471.8,137,476.7,136,482.1,136z M481.5,145.8c-2.5,0-4.8,0.6-6.8,1.8c-2,1.2-3.6,2.9-4.7,5.1s-1.6,4.5-1.6,7
			c0,2.3,0.5,4.4,1.5,6.3c1,1.9,2.5,3.4,4.5,4.5s4.2,1.6,6.4,1.6c2.4,0,4.6-0.6,6.6-1.8c2-1.2,3.5-2.9,4.6-5.1
			c1.1-2.2,1.6-4.5,1.6-6.9c0-2.3-0.5-4.5-1.5-6.4c-1-2-2.4-3.5-4.3-4.6C486,146.4,483.9,145.8,481.5,145.8z"/>
		<path class="st0" d="M513,181.4c0.4-3.8,0.7-7.3,1-10.3c0.2-3.1,0.5-6.6,0.6-10.7c0.2-4,0.3-8.3,0.4-12.8s0.1-8.1,0.1-10.7
			c2.7,0.1,4.9,0.1,6.6,0.1c1.7,0,3.9,0,6.4-0.1c2.5-0.1,4.9-0.1,7.3-0.1c2.8,0,5.3,0.1,7.4,0.3c1.6,0.2,3.1,0.5,4.4,0.9
			c1.3,0.5,2.5,1.1,3.4,1.7c0.9,0.7,1.7,1.5,2.3,2.3c0.6,0.8,1.1,1.8,1.4,3c0.3,1.1,0.5,2.4,0.5,3.7c0,1.5-0.2,2.8-0.6,4.1
			s-1,2.5-1.7,3.6c-0.8,1.1-1.8,2.1-3,2.9c-1.2,0.8-2.9,1.6-5.1,2.5l1.7,4.1c0.5,1.2,1,2.3,1.5,3.5l4.4,9.6c0.2,0.4,0.5,1.2,1,2.4
			c-3.6,0-6-0.1-7.2-0.1c-1.6,0-4.1,0-7.7,0.1c-0.3-1.1-1-3.2-1.9-6.3c-0.4-1.3-0.7-2.3-0.9-3c-0.5-1.5-1.3-3.7-2.3-6.5l-3.4-9.2
			c1.2,0.2,2.3,0.3,3.5,0.3c1.6,0,3-0.2,4.3-0.7c1.3-0.5,2.3-1.2,2.9-2.2s1-2.1,1-3.2c0-0.9-0.2-1.8-0.7-2.5
			c-0.5-0.7-1.3-1.2-2.4-1.6s-2.7-0.5-5-0.5c-0.8,0-1.5,0-2.4,0c-0.8,0-1.8,0.1-2.9,0.1c-0.3,4.5-0.5,9.9-0.7,16.3
			c-0.2,6.4-0.4,12.7-0.4,18.9c-3.6,0-6-0.1-7.1-0.1C518.5,181.3,516.2,181.3,513,181.4z"/>
		<path class="st0" d="M559.1,181.4l0.8-6.6l2-22.9l1-15.1c4,0,7.2,0.1,9.5,0.1c1.9,0,4.8,0,8.7-0.1c0.3,1.9,0.5,3.3,0.7,4.3
			c0.2,1,0.7,2.9,1.5,5.7c0.8,2.8,1.4,5.2,1.9,7.3c0.5,2.1,1.2,5.6,2.1,10.5c1-3.4,1.8-6.3,2.6-8.8c0.8-2.5,1.8-5.2,2.9-8.4
			c1.2-3.1,1.9-5.2,2.2-6.1c0.3-1,0.7-2.5,1.3-4.4c3.3,0,6.5,0.1,9.6,0.1c2.1,0,5.1,0,8.9-0.1c-0.4,7.3-0.7,13.6-0.8,18.9
			c-0.3,10.3-0.4,17.4-0.4,21.3c0,0.8,0,2.3,0.1,4.4c-2.9,0-4.9-0.1-6-0.1c-1.7,0-3.7,0-6.2,0.1c0.2-2,0.4-6.6,0.7-14
			c0.3-7.4,0.4-12.1,0.4-14.1c0-0.9,0-2.1-0.1-3.7l-4.3,13.3l-6.1,18.5c-2.8,0-4.8-0.1-5.8-0.1c-1.3,0-3.4,0-6.2,0.1l-4-17.9
			l-2.4-9.6c-0.1-0.4-0.2-0.8-0.3-1.4s-0.3-1.5-0.5-2.9l-0.8,9l-1.1,18.5l-0.1,4.2c-3,0-4.9-0.1-5.7-0.1
			C563.8,181.3,561.8,181.3,559.1,181.4z"/>
	</g>
</g>
</svg>
