<?xml version="1.0" standalone="no"?>
<!DOCTYPE svg PUBLIC "-//W3C//DTD SVG 20010904//EN"
 "http://www.w3.org/TR/2001/REC-SVG-20010904/DTD/svg10.dtd">
<svg version="1.0" xmlns="http://www.w3.org/2000/svg"
 width="700.000000pt" height="700.000000pt" viewBox="0 0 700.000000 700.000000"
 preserveAspectRatio="xMidYMid meet">
<metadata>
Created by potrace 1.11, written by Peter Selinger 2001-2013
</metadata>
<g transform="translate(0.000000,700.000000) scale(0.100000,-0.100000)"
fill="#000000" stroke="none">
<path d="M1657 6994 c-1 -1 -49 -4 -107 -7 -58 -4 -116 -8 -130 -11 -14 -3
-47 -8 -74 -11 -27 -3 -52 -7 -56 -10 -4 -3 -25 -7 -46 -11 -50 -8 -216 -60
-271 -85 -165 -74 -227 -110 -338 -193 -325 -244 -524 -590 -599 -1040 -18
-105 -21 -398 -21 -2146 0 -1690 4 -2124 20 -2150 2 -3 6 -21 9 -41 3 -19 13
-62 21 -95 9 -32 17 -63 19 -69 14 -60 90 -245 123 -297 13 -21 23 -41 23 -45
0 -12 91 -145 139 -203 68 -84 89 -105 176 -181 191 -169 416 -284 671 -345
105 -24 132 -29 244 -41 36 -4 958 -7 2050 -7 1576 -1 2005 2 2080 12 383 53
697 201 944 446 241 237 396 561 441 916 3 25 8 63 11 85 3 22 8 904 10 1960
4 1441 2 1928 -7 1953 -15 43 -53 62 -115 57 -190 -17 -413 -142 -540 -304
-82 -104 -147 -256 -170 -396 -4 -22 -8 -753 -9 -1625 -2 -872 -6 -1601 -9
-1620 -53 -307 -216 -509 -485 -600 -137 -46 -133 -46 -2186 -44 -1067 0
-1956 4 -1975 8 -19 3 -48 9 -65 12 -169 33 -331 134 -429 266 -59 81 -113
222 -133 348 -10 60 -10 3928 0 4009 27 222 132 408 295 522 36 26 133 75 167
85 6 2 46 14 90 26 l80 23 1985 0 c1855 0 1990 -1 2066 -18 97 -21 202 -62
275 -109 52 -33 210 -165 217 -180 2 -5 8 -8 13 -8 5 0 26 -11 47 -25 20 -13
66 -32 102 -41 139 -35 277 3 382 108 155 155 164 366 25 561 -105 147 -379
355 -567 431 -25 10 -54 22 -65 27 -27 12 -143 46 -180 53 -16 3 -45 8 -64 11
-19 3 -37 7 -40 9 -19 12 -418 19 -1256 22 -1329 5 -2786 9 -2788 8z"/>
<path d="M1838 5522 c-46 -3 -52 -8 -50 -42 0 -3 3 -86 7 -185 3 -99 8 -193 9
-210 2 -16 6 -61 10 -100 11 -111 16 -146 26 -205 5 -30 12 -73 15 -95 6 -42
12 -76 20 -110 66 -288 114 -430 212 -628 64 -128 121 -219 193 -307 152 -185
325 -315 507 -380 l62 -22 -24 -33 c-14 -17 -25 -36 -25 -41 0 -5 35 -33 77
-62 l77 -52 20 35 c11 19 23 35 27 35 4 0 29 -39 57 -87 27 -49 80 -140 116
-202 36 -63 66 -119 66 -123 0 -4 -16 -8 -35 -8 l-35 0 0 -75 c0 -77 1 -79 45
-77 42 2 46 -5 29 -50 -43 -111 -192 -260 -395 -395 l-99 -66 0 -61 c0 -34 -4
-66 -8 -72 -4 -6 -25 -10 -47 -9 -22 1 -45 0 -52 -2 -9 -4 -12 -106 -12 -409
l0 -404 869 0 870 0 0 409 0 408 -55 -2 c-31 -1 -56 3 -58 9 -2 6 -3 37 -2 69
2 49 -1 60 -19 73 -190 132 -245 174 -321 246 -91 86 -165 191 -165 234 0 20
5 22 40 20 44 -3 42 -6 42 79 0 74 0 74 -37 77 l-35 3 62 111 c155 273 173
304 180 304 3 0 16 -16 28 -35 l21 -34 52 36 c29 20 64 45 79 55 l28 19 -25
33 c-14 18 -25 35 -25 38 0 3 15 11 33 18 455 173 767 596 921 1250 26 110 32
142 41 200 3 19 7 46 10 60 11 62 19 128 30 240 3 36 8 81 10 100 2 29 9 154
18 385 l2 30 -70 5 c-39 3 -154 4 -257 2 l-188 -3 0 -75 c0 -81 -15 -129 -51
-164 -27 -26 -99 -60 -139 -66 l-27 -5 1 78 1 78 -987 0 c-653 0 -988 -3 -989
-10 0 -5 0 -41 1 -79 l1 -69 -28 7 c-56 13 -138 62 -160 95 -20 29 -23 47 -23
122 l0 89 -147 1 c-82 0 -177 1 -213 2 -36 1 -86 1 -112 -1z m292 -238 c13
-46 63 -121 104 -156 42 -37 161 -91 227 -103 70 -13 75 -16 75 -38 1 -36 16
-231 19 -248 3 -15 11 -81 20 -154 8 -71 17 -140 21 -159 2 -12 9 -48 14 -81
44 -273 142 -637 229 -852 11 -29 16 -53 11 -53 -21 0 -147 69 -208 114 -300
222 -508 626 -602 1171 -20 114 -25 153 -35 245 -3 30 -8 71 -10 90 -3 19 -7
88 -10 153 l-6 117 69 0 69 0 13 -46z m2905 24 c-2 -13 -6 -77 -10 -143 -3
-66 -8 -129 -10 -140 -2 -11 -7 -47 -10 -80 -7 -70 -13 -109 -25 -185 -5 -30
-12 -71 -15 -90 -3 -19 -11 -53 -16 -75 -6 -22 -13 -47 -14 -55 -65 -310 -227
-648 -404 -841 -94 -103 -270 -227 -359 -254 -22 -6 -23 -5 -12 16 62 116 202
618 235 844 2 11 10 61 19 110 8 50 18 110 21 135 10 91 15 134 19 169 3 20 8
72 12 116 4 44 8 91 9 105 2 14 3 36 4 50 1 23 7 27 69 38 87 16 198 71 252
124 43 43 90 127 90 161 0 15 10 17 74 17 72 0 75 -1 71 -22z"/>
</g>
</svg>
